<?xml version="1.0" encoding="utf-8"?>
<!-- Generator: Adobe Illustrator 22.1.0, SVG Export Plug-In . SVG Version: 6.00 Build 0)  -->
<svg version="1.1" id="Layer_1" xmlns="http://www.w3.org/2000/svg" xmlns:xlink="http://www.w3.org/1999/xlink" x="0px" y="0px"
	 viewBox="0 0 568 568" style="enable-background:new 0 0 568 568;" xml:space="preserve">
<style type="text/css">
	.st0{fill:#CC99FF;}
	.st1{display:none;fill:#CC99FF;}
	.st2{display:none;fill:#CC99FF;stroke:#CC99FF;stroke-width:4;stroke-miterlimit:1;}
</style>
<title>instagram</title>
<path class="st0" d="M97.3,566C44.7,566,2,523.3,2,470.7c0,0,0,0,0,0V97.3C2,44.7,44.7,2,97.3,2c0,0,0,0,0,0h373.3
	C523.3,2,566,44.7,566,97.3c0,0,0,0,0,0v373.3c0,52.6-42.7,95.3-95.3,95.3c0,0,0,0,0,0H97.3z M97.3,52.7c-24.7,0-44.7,20-44.7,44.7
	v373.3c0,24.7,20,44.7,44.7,44.7h373.3c24.7,0,44.7-20,44.7-44.7l0,0V97.3c0-24.7-20-44.7-44.7-44.7L97.3,52.7z"/>
<path class="st1" d="M470.7,4C522.2,4,564,45.8,564,97.3c0,0,0,0,0,0v373.3c0,51.5-41.8,93.3-93.3,93.3c0,0,0,0,0,0H97.3
	C45.8,564,4,522.2,4,470.7c0,0,0,0,0,0V97.3C4,45.8,45.8,4,97.3,4c0,0,0,0,0,0H470.7 M97.3,517.3h373.3c25.8,0,46.7-20.9,46.7-46.7
	l0,0V97.3c0-25.8-20.9-46.7-46.7-46.7c0,0,0,0,0,0H97.3c-25.8,0-46.7,20.9-46.7,46.7c0,0,0,0,0,0v373.3
	C50.7,496.4,71.6,517.3,97.3,517.3 M470.7,0H97.3C43.6,0,0,43.6,0,97.3l0,0v373.3C0,524.4,43.6,568,97.3,568h0h373.3
	c53.8,0,97.3-43.6,97.3-97.3c0,0,0,0,0,0V97.3C568,43.6,524.4,0,470.7,0L470.7,0z M97.3,513.3c-23.5,0-42.6-19.1-42.7-42.6
	c0,0,0,0,0,0V97.3c0-23.6,19.1-42.7,42.6-42.7c0,0,0,0,0,0h373.3c23.6,0,42.7,19.1,42.7,42.7c0,0,0,0,0,0v373.3l0,0
	c0,23.5-19.1,42.6-42.6,42.7c0,0,0,0,0,0L97.3,513.3z"/>
<path class="st1" d="M284,426c-78.4,0-142-63.6-142-142s63.6-142,142-142s142,63.6,142,142c0,37.7-15,73.8-41.6,100.4
	C357.8,411.1,321.7,426.1,284,426z M284,192.7c-50.4,0-91.3,40.9-91.3,91.3s40.9,91.3,91.3,91.3s91.3-40.9,91.3-91.3
	c0-24.2-9.6-47.5-26.7-64.6C331.5,202.2,308.2,192.6,284,192.7z"/>
<path class="st1" d="M284,144c77.3,0,140,62.7,140,140s-62.7,140-140,140s-140-62.7-140-140c0-37.1,14.8-72.7,41-99
	C211.3,158.7,246.9,144,284,144 M284,377.3c51.5,0,93.3-41.8,93.3-93.3s-41.8-93.3-93.3-93.3s-93.3,41.8-93.3,93.3
	c0,24.8,9.8,48.5,27.3,66C235.5,367.5,259.2,377.3,284,377.3 M284,140c-79.5,0-144,64.4-144.1,143.9S204.3,428,283.8,428
	s144-64.4,144.1-143.9c0-58.2-35-110.8-88.8-133.1C321.6,143.7,302.9,140,284,140z M284,373.3c-49.3,0-89.3-40-89.3-89.3
	s40-89.3,89.3-89.3s89.3,40,89.3,89.3c0,23.7-9.4,46.4-26.2,63.2C330.5,364,307.7,373.4,284,373.3L284,373.3z"/>
<path class="st2" d="M470.7,132.3c0,19.3-15.7,35-35,35s-35-15.7-35-35s15.7-35,35-35S470.7,113,470.7,132.3L470.7,132.3"/>
<g>
	<g>
		<path class="st0" d="M257.1,266.7c13.6,10.4,22.5,23.5,26.5,40c9.5,39.3-18.3,79-58.6,83.6c-3.9,0.4-7.8,0.7-11.7,0.7
			c-32.3,0.1-64.7,0-97,0c-8,0-10.4-2.4-10.4-10.4c0-65.3,0-130.5,0-195.8c0-8,2.4-10.4,10.3-10.4c29.4,0,58.9,0.1,88.3,0
			c48.7-0.1,77.1,50.7,53.3,90.8C257.6,265.6,257.4,266,257.1,266.7z M146.1,351c1.3,0.1,2.3,0.3,3.3,0.3c22.5,0,45,0,67.4,0
			c2.2,0,4.4-0.2,6.5-0.6c14.2-3.2,23.8-16.5,22.4-30.5c-1.5-14.6-13.7-25.6-28.6-25.7c-22.5-0.1-45,0-67.4,0
			c-1.1,0-2.2,0.2-3.5,0.3C146.1,313.5,146.1,332,146.1,351z M146.2,214.6c0,13.3,0,26.1,0,39.1c20.3,0,40.3,0.1,60.3-0.1
			c10.4-0.1,18.8-8.6,19.1-18.8c0.4-10.3-7.7-19.9-18.2-20.1C187.2,214.3,166.9,214.6,146.2,214.6z"/>
	</g>
	<g>
		<path class="st0" d="M338.9,318.3c1.9,16.2,17.5,31.9,33.8,34.6c12.6,2.1,23.8-0.7,33.5-9.3c1.2-1.1,3-1.9,4.6-2
			c12.8-0.2,25.5-0.1,38.3-0.1c4.1,0,5.6,2.1,3.9,5.4c-12.3,23.8-31.1,39.5-57.5,44.9c-41.3,8.4-81.1-15.8-94.4-56.8
			c-14.6-45.1,9.9-93.6,54.5-107.9c43.9-14.1,91.6,13.1,103.3,59.4c2,7.8,2.4,16,3.3,24c0.4,3.6-2.8,7-6.5,7.5
			c-1.7,0.3-3.5,0.2-5.2,0.2c-35.4,0-70.8,0-106.1,0C342.7,318.3,340.9,318.3,338.9,318.3z M343.9,283.8c23.9,0,46.9,0,70.6,0
			c-8.4-12.6-19.3-19.8-34-20.1C364.8,263.3,353.2,270.8,343.9,283.8z"/>
	</g>
	<g>
		<path class="st0" d="M376.9,213.6c-11.6,0-23.2,0-34.8,0c-6.2,0-8.2-2-8.2-8c-0.1-5.1-0.1-10.2,0-15.2c0.1-5.3,2.2-7.4,7.4-7.4
			c23.6,0,47.3,0,70.9,0c5.1,0,7.2,2,7.3,7.1c0.1,5.4,0.1,10.7,0,16.1c-0.1,5.3-2.1,7.4-7.4,7.4
			C400.4,213.7,388.7,213.6,376.9,213.6z"/>
	</g>
</g>
</svg>
