<svg id="Layer_1" data-name="Layer 1" xmlns="http://www.w3.org/2000/svg" viewBox="0 0 198.76 36.96"><defs><style>.cls-1{fill:#fff;}</style></defs><title>close</title><path class="cls-1" d="M165.16,42.48l-2.83-2.83L178,24,162.46,8.35l2.84-2.83,15.51,15.65L196.32,5.66l2.83,2.83L183.64,24l15.64,15.51-2.83,2.83L180.81,26.83Z" transform="translate(-0.53 -5.52)"/><path class="cls-1" d="M27.7,29.75a13.55,13.55,0,0,1-1.89,6,11.12,11.12,0,0,1-4.48,4.13,15.08,15.08,0,0,1-7,1.5,13.32,13.32,0,0,1-7.32-2A12.91,12.91,0,0,1,2.2,33.77,20.21,20.21,0,0,1,.53,25.21V22.52a19.9,19.9,0,0,1,1.71-8.58A13,13,0,0,1,7.09,8.33a13.68,13.68,0,0,1,7.43-2,14.6,14.6,0,0,1,6.92,1.51A10.91,10.91,0,0,1,25.81,12a14.62,14.62,0,0,1,1.89,6.1h-6a8.87,8.87,0,0,0-1.93-5.06q-1.58-1.8-5.23-1.8a7.15,7.15,0,0,0-4.39,1.3A7.83,7.83,0,0,0,7.5,16.35a18.4,18.4,0,0,0-.89,6.12v2.74a20,20,0,0,0,.8,6,7.88,7.88,0,0,0,2.48,3.88,6.77,6.77,0,0,0,4.4,1.37,9,9,0,0,0,4-.77,5.3,5.3,0,0,0,2.33-2.26,10.07,10.07,0,0,0,1-3.66Z" transform="translate(-0.53 -5.52)"/><path class="cls-1" d="M39,40.89h-6V6.81h6Zm15.4,0H37.27V36H54.36Z" transform="translate(-0.53 -5.52)"/><path class="cls-1" d="M84.55,24.74a20.52,20.52,0,0,1-1.78,8.89,13.43,13.43,0,0,1-5,5.72A13.75,13.75,0,0,1,58,33.63a20.08,20.08,0,0,1-1.81-8.89V23a20.33,20.33,0,0,1,1.8-8.9,13.48,13.48,0,0,1,5-5.74,14.71,14.71,0,0,1,14.81,0,13.48,13.48,0,0,1,5,5.74A20.48,20.48,0,0,1,84.55,23Zm-6.06-1.8a18.39,18.39,0,0,0-1-6.36,8.22,8.22,0,0,0-2.79-3.91,7.31,7.31,0,0,0-4.4-1.32A7.19,7.19,0,0,0,66,12.67a8.35,8.35,0,0,0-2.79,3.91,18.38,18.38,0,0,0-1,6.36v1.8a17.92,17.92,0,0,0,1,6.36A8.36,8.36,0,0,0,66,35a7.89,7.89,0,0,0,8.77,0,8.09,8.09,0,0,0,2.75-3.94,19,19,0,0,0,.94-6.36Z" transform="translate(-0.53 -5.52)"/><path class="cls-1" d="M108.19,32.09a4.55,4.55,0,0,0-.58-2.35,5.24,5.24,0,0,0-2.14-1.81A27.64,27.64,0,0,0,101,26.19a35,35,0,0,1-4.45-1.66,16.7,16.7,0,0,1-3.57-2.17,9.07,9.07,0,0,1-2.38-2.85,8,8,0,0,1-.85-3.76,8.08,8.08,0,0,1,1.54-4.9,10.19,10.19,0,0,1,4.28-3.31,15.71,15.71,0,0,1,6.35-1.2,14.51,14.51,0,0,1,6.6,1.4,10.36,10.36,0,0,1,4.24,3.75,9.63,9.63,0,0,1,1.49,5.27h-6a6,6,0,0,0-.69-2.89,4.74,4.74,0,0,0-2.09-2,7.84,7.84,0,0,0-3.58-.72,8.44,8.44,0,0,0-3.4.61,4.5,4.5,0,0,0-2,1.64,4.26,4.26,0,0,0-.66,2.34,3.35,3.35,0,0,0,.8,2.2,7,7,0,0,0,2.41,1.74,26.38,26.38,0,0,0,4,1.51,28.23,28.23,0,0,1,6.29,2.58A10.27,10.27,0,0,1,113,27.27,9,9,0,0,1,114.22,32a8.35,8.35,0,0,1-1.49,5,9.5,9.5,0,0,1-4.24,3.22,16.88,16.88,0,0,1-6.44,1.13,18.11,18.11,0,0,1-4.84-.67,14.5,14.5,0,0,1-4.32-2,10.23,10.23,0,0,1-3.09-3.39,9.52,9.52,0,0,1-1.16-4.79h6a6.32,6.32,0,0,0,.56,2.78,5.16,5.16,0,0,0,1.57,1.89,6.64,6.64,0,0,0,2.35,1.06,12.12,12.12,0,0,0,2.89.33,8.65,8.65,0,0,0,3.4-.58,4.47,4.47,0,0,0,2-1.58A4,4,0,0,0,108.19,32.09Z" transform="translate(-0.53 -5.52)"/><path class="cls-1" d="M125.43,40.89h-6V6.81h6Zm16.2-29.21H123.75V6.81h17.88Zm-2.25,14H123.75V21h15.63Zm2.37,15.17h-18V36h18Z" transform="translate(-0.53 -5.52)"/></svg>