<?xml version="1.0" encoding="utf-8"?>
<!-- Generator: Adobe Illustrator 22.1.0, SVG Export Plug-In . SVG Version: 6.00 Build 0)  -->
<svg version="1.1" id="Layer_1" xmlns="http://www.w3.org/2000/svg" xmlns:xlink="http://www.w3.org/1999/xlink" x="0px" y="0px"
	 viewBox="0 0 568 568" style="enable-background:new 0 0 568 568;" xml:space="preserve">
<style type="text/css">
	.st0{fill:#CC99FF;}
	.st1{display:none;fill:#CC99FF;}
	.st2{fill:#CC99FF;stroke:#CC99FF;stroke-width:4;stroke-miterlimit:1;}
</style>
<title>instagram</title>
<path class="st0" d="M97.3,566C44.7,566,2,523.3,2,470.7c0,0,0,0,0,0V97.3C2,44.7,44.7,2,97.3,2c0,0,0,0,0,0h373.3
	C523.3,2,566,44.7,566,97.3c0,0,0,0,0,0v373.3c0,52.6-42.7,95.3-95.3,95.3c0,0,0,0,0,0H97.3z M97.3,52.7c-24.7,0-44.7,20-44.7,44.7
	v373.3c0,24.7,20,44.7,44.7,44.7h373.3c24.7,0,44.7-20,44.7-44.7l0,0V97.3c0-24.7-20-44.7-44.7-44.7L97.3,52.7z"/>
<path class="st1" d="M470.7,4C522.2,4,564,45.8,564,97.3c0,0,0,0,0,0v373.3c0,51.5-41.8,93.3-93.3,93.3c0,0,0,0,0,0H97.3
	C45.8,564,4,522.2,4,470.7c0,0,0,0,0,0V97.3C4,45.8,45.8,4,97.3,4c0,0,0,0,0,0H470.7 M97.3,517.3h373.3c25.8,0,46.7-20.9,46.7-46.7
	l0,0V97.3c0-25.8-20.9-46.7-46.7-46.7c0,0,0,0,0,0H97.3c-25.8,0-46.7,20.9-46.7,46.7c0,0,0,0,0,0v373.3
	C50.7,496.4,71.6,517.3,97.3,517.3 M470.7,0H97.3C43.6,0,0,43.6,0,97.3l0,0v373.3C0,524.4,43.6,568,97.3,568h0h373.3
	c53.8,0,97.3-43.6,97.3-97.3c0,0,0,0,0,0V97.3C568,43.6,524.4,0,470.7,0L470.7,0z M97.3,513.3c-23.5,0-42.6-19.1-42.7-42.6
	c0,0,0,0,0,0V97.3c0-23.6,19.1-42.7,42.6-42.7c0,0,0,0,0,0h373.3c23.6,0,42.7,19.1,42.7,42.7c0,0,0,0,0,0v373.3l0,0
	c0,23.5-19.1,42.6-42.6,42.7c0,0,0,0,0,0L97.3,513.3z"/>
<path class="st0" d="M284,426c-78.4,0-142-63.6-142-142s63.6-142,142-142s142,63.6,142,142c0,37.7-15,73.8-41.6,100.4
	C357.8,411.1,321.7,426.1,284,426z M284,192.7c-50.4,0-91.3,40.9-91.3,91.3s40.9,91.3,91.3,91.3s91.3-40.9,91.3-91.3
	c0-24.2-9.6-47.5-26.7-64.6C331.5,202.2,308.2,192.6,284,192.7z"/>
<path class="st1" d="M284,144c77.3,0,140,62.7,140,140s-62.7,140-140,140s-140-62.7-140-140c0-37.1,14.8-72.7,41-99
	C211.3,158.7,246.9,144,284,144 M284,377.3c51.5,0,93.3-41.8,93.3-93.3s-41.8-93.3-93.3-93.3s-93.3,41.8-93.3,93.3
	c0,24.8,9.8,48.5,27.3,66C235.5,367.5,259.2,377.3,284,377.3 M284,140c-79.5,0-144,64.4-144.1,143.9S204.3,428,283.8,428
	s144-64.4,144.1-143.9c0-58.2-35-110.8-88.8-133.1C321.6,143.7,302.9,140,284,140z M284,373.3c-49.3,0-89.3-40-89.3-89.3
	s40-89.3,89.3-89.3s89.3,40,89.3,89.3c0,23.7-9.4,46.4-26.2,63.2C330.5,364,307.7,373.4,284,373.3L284,373.3z"/>
<path class="st2" d="M470.7,132.3c0,19.3-15.7,35-35,35s-35-15.7-35-35s15.7-35,35-35S470.7,113,470.7,132.3L470.7,132.3"/>
</svg>
