<svg id="Layer_1" data-name="Layer 1" xmlns="http://www.w3.org/2000/svg" viewBox="0 0 175.45 213.83"><defs><style>.cls-1{fill:#96f;}</style></defs><title>logo</title><path class="cls-1" d="M22.24,169.27c-6.47,0-11.85-2-16-6.06a21.16,21.16,0,0,1,0-30.05c4.13-4,9.51-6,16-6s11.93,2,16,6a20.13,20.13,0,0,1,6.2,15,20.34,20.34,0,0,1-6.19,15C34.17,167.23,28.78,169.27,22.24,169.27Zm0-79.51c-6.47,0-11.85-2-16-6.07A20.18,20.18,0,0,1,0,68.65a20.1,20.1,0,0,1,6.26-15c4.13-4,9.51-6,16-6s11.93,2,16,6a20.13,20.13,0,0,1,6.2,15,20.34,20.34,0,0,1-6.19,15C34.17,87.72,28.78,89.76,22.24,89.76Z"/><path class="cls-1" d="M22.24,49.65q9,0,14.64,5.44a18.15,18.15,0,0,1,5.59,13.56,18.3,18.3,0,0,1-5.59,13.61q-5.61,5.51-14.64,5.5T7.65,82.26A18.21,18.21,0,0,1,2,68.65,18.05,18.05,0,0,1,7.65,55.09q5.65-5.45,14.59-5.44m0,79.51q9,0,14.64,5.44a19.3,19.3,0,0,1,0,27.17q-5.61,5.5-14.64,5.5t-14.59-5.5a19.16,19.16,0,0,1,0-27.17q5.65-5.44,14.59-5.44m0-83.51c-7,0-12.85,2.2-17.37,6.56A22,22,0,0,0-2,68.65,22.18,22.18,0,0,0,4.86,85.13c4.52,4.4,10.37,6.63,17.38,6.63s13-2.24,17.44-6.64a22.26,22.26,0,0,0,6.79-16.47,22.14,22.14,0,0,0-6.8-16.43c-4.5-4.36-10.36-6.57-17.43-6.57Zm0,79.51c-7,0-12.85,2.2-17.37,6.56a23.17,23.17,0,0,0,0,32.92c4.52,4.4,10.37,6.63,17.38,6.63s13-2.24,17.44-6.64a23.31,23.31,0,0,0,0-32.9c-4.5-4.36-10.36-6.57-17.43-6.57Z"/><path class="cls-1" d="M117.13,212.65l-7-18.8.68-2.3A54,54,0,0,0,121.22,181a74.93,74.93,0,0,0,9.24-16.56,112.28,112.28,0,0,0,6.61-23.72,187.46,187.46,0,0,0,2.43-32v-3.59a187.46,187.46,0,0,0-2.43-32,114.79,114.79,0,0,0-6.56-23.73,74.5,74.5,0,0,0-9.19-16.6,51.61,51.61,0,0,0-10.48-10.59l-.69-2.32,7-18.69L119.7,0c6.93,2.55,13.81,7,20.45,13.21A99.85,99.85,0,0,1,158,36.27a131.09,131.09,0,0,1,12.68,31.24,144.75,144.75,0,0,1,4.74,37.81v3.19a144.15,144.15,0,0,1-4.74,37.76A132.12,132.12,0,0,1,158,177.51a99.53,99.53,0,0,1-17.88,23.11c-6.64,6.22-13.52,10.66-20.45,13.21Z"/><path class="cls-1" d="M119,1.88q10.06,3.69,19.77,12.79a97.6,97.6,0,0,1,17.52,22.6A128.49,128.49,0,0,1,168.78,68a142.54,142.54,0,0,1,4.67,37.29v3.19a141.94,141.94,0,0,1-4.67,37.24,129.68,129.68,0,0,1-12.48,30.76,97.29,97.29,0,0,1-17.52,22.65Q129.07,208.27,119,212l-7-18.8a55.23,55.23,0,0,0,10.79-10.94,76.38,76.38,0,0,0,9.5-17A114.38,114.38,0,0,0,139,141.07a188.41,188.41,0,0,0,2.46-32.36v-3.59A188.41,188.41,0,0,0,139,72.76a116.51,116.51,0,0,0-6.68-24.14,76.28,76.28,0,0,0-9.45-17,53.35,53.35,0,0,0-10.89-11l7-18.69m1.37-3.76L115.26.48l-7,18.69,1.4,4.64A49.84,49.84,0,0,1,119.73,34a73,73,0,0,1,8.94,16.16,113.34,113.34,0,0,1,6.43,23.3,185.62,185.62,0,0,1,2.4,31.67v3.59a185.62,185.62,0,0,1-2.4,31.67,110.37,110.37,0,0,1-6.48,23.29,72.76,72.76,0,0,1-9,16.11,51.62,51.62,0,0,1-10,10.16l-1.37,4.61,7,18.8,5.12,2.36c7.19-2.64,14.3-7.22,21.14-13.63a101.51,101.51,0,0,0,18.24-23.57,134.59,134.59,0,0,0,12.88-31.71,146.49,146.49,0,0,0,4.81-38.29v-3.19A147,147,0,0,0,172.64,67a133.11,133.11,0,0,0-12.88-31.72,101.85,101.85,0,0,0-18.25-23.52c-6.83-6.4-13.94-11-21.13-13.63Z"/></svg>