<svg id="Layer_1" data-name="Layer 1" xmlns="http://www.w3.org/2000/svg" viewBox="0 0 564 564"><defs><style>.cls-1{fill:#c9f;}</style></defs><title>twitter</title><path class="cls-1" d="M97.33,566A95.32,95.32,0,0,1,2,470.69V97.33A95.32,95.32,0,0,1,97.31,2H470.67A95.32,95.32,0,0,1,566,97.31V470.67A95.32,95.32,0,0,1,470.69,566H97.33Zm0-513.34A44.67,44.67,0,0,0,52.67,97.33V470.67a44.65,44.65,0,0,0,44.66,44.66H470.67a44.65,44.65,0,0,0,44.66-44.66h0V97.33a44.67,44.67,0,0,0-44.66-44.67Z" transform="translate(-2 -2)"/><path class="cls-1" d="M258.17,439.66H244.91a26.42,26.42,0,0,0-3.4-.54,299.34,299.34,0,0,1-91.92-17.88c-11.81-4.31-23.28-9.43-32.7-18.12-4.08-3.76-5.19-8.14-3.32-12.57,2-4.77,5.92-6.62,10.85-6.64,3.49,0,7,.16,10.46.18,18.8.07,37.49-.94,55-8.77,6.77-3,13-7.14,19.94-11a12.92,12.92,0,0,0-1.42-1c-1.34-.39-2.68-.75-4-1.13-23.66-6.72-45.51-16.74-63.24-34.39-3.17-3.16-5.17-6.63-4-11.19,1.18-4.83,4.57-7.28,9.28-8.33,3.15-.7,6.23-1.7,9.48-2.6-.35-.47-.45-.71-.62-.81-1.8-1.05-3.63-2.07-5.43-3.13-22.6-13.28-37.11-32.54-43-58.17-.39-1.66-.95-3.28-1.43-4.92v-4.89c3.79-8.17,7.67-9.85,16.47-7.19,2.73.83,5.48,1.61,8.75,2.56-.6-1.49-.94-2.43-1.35-3.34A76.16,76.16,0,0,1,122.73,185,66.88,66.88,0,0,1,135,153.2c4.84-6.72,13.52-6.49,18.09.38,1.22,1.84,2.23,3.81,3.36,5.71,23,38.56,55.73,64.21,99.74,74.7,6.34,1.51,12.86,2.32,19.31,3.45.29-5.79.35-10.9.83-16,2.24-23.41,11.36-43.77,29.3-59,24.85-21.16,52.81-25,82.94-12a6.06,6.06,0,0,0,4.46.17c15.37-7.33,30.65-14.84,46-22.3h3.49c9.53,4.63,11,9.21,6.25,18.88q-6.79,13.72-13.6,27.43c-.49,1-.92,2-1.62,3.54,5.23-.41,9.87-.49,14.43-1.2,7-1.09,12,1.23,14.78,7.89v4.89c-5.59,9.22-11.23,18.42-16.74,27.7a8.16,8.16,0,0,0-1.2,4.49c.56,6.95,1.55,13.86,2.1,20.81a178.54,178.54,0,0,1-11,77c-8.16,22.06-20.42,41.69-35.76,59.42-10.77,12.46-22.7,23.64-36.81,32.35-26.29,16.23-55.16,24.11-85.7,26.66C271.13,438.78,264.65,439.19,258.17,439.66Z" transform="translate(-2 -2)"/></svg>